<svg width="47" height="19" viewBox="0 0 47 19" fill="none" xmlns="http://www.w3.org/2000/svg">
<path d="M0.6 -9.53674e-07H2.3V12.4H7.8V14H0.6V-9.53674e-07ZM13.0639 14.2C12.2106 14.2 11.4506 14 10.7839 13.6C10.1306 13.1867 9.61724 12.62 9.24391 11.9C8.88391 11.18 8.70391 10.3467 8.70391 9.4C8.70391 8.44 8.89057 7.6 9.26391 6.88C9.65057 6.16 10.1839 5.6 10.8639 5.2C11.5572 4.8 12.3572 4.6 13.2639 4.6C14.1706 4.6 14.9439 4.79333 15.5839 5.18C16.2372 5.55333 16.7372 6.09333 17.0839 6.8C17.4306 7.50667 17.6039 8.34667 17.6039 9.32C17.6039 9.41333 17.5972 9.51333 17.5839 9.62C17.5839 9.71333 17.5839 9.77333 17.5839 9.8H9.72391V8.44H16.3239L15.6839 9.36C15.7239 9.29333 15.7639 9.19333 15.8039 9.06C15.8439 8.91333 15.8639 8.79333 15.8639 8.7C15.8639 8.15333 15.7506 7.68 15.5239 7.28C15.3106 6.88 15.0106 6.56667 14.6239 6.34C14.2372 6.11333 13.7839 6 13.2639 6C12.6506 6 12.1239 6.13333 11.6839 6.4C11.2572 6.65333 10.9239 7.02667 10.6839 7.52C10.4572 8 10.3372 8.59333 10.3239 9.3C10.3239 10.02 10.4372 10.6333 10.6639 11.14C10.8906 11.6467 11.2239 12.0333 11.6639 12.3C12.1039 12.5667 12.6372 12.7 13.2639 12.7C13.8906 12.7 14.4439 12.5667 14.9239 12.3C15.4039 12.02 15.8106 11.6 16.1439 11.04L17.4439 11.86C16.9639 12.6333 16.3572 13.22 15.6239 13.62C14.9039 14.0067 14.0506 14.2 13.0639 14.2ZM19.1769 14.6H20.7969C20.7969 15.04 20.9169 15.4467 21.1569 15.82C21.3969 16.2067 21.7369 16.5133 22.1769 16.74C22.6169 16.98 23.1369 17.1 23.7369 17.1C24.2035 17.1 24.6635 16.9867 25.1169 16.76C25.5702 16.5333 25.9435 16.1733 26.2369 15.68C26.5435 15.2 26.6969 14.5733 26.6969 13.8V4.8H28.2969V13.8C28.2969 14.8533 28.0769 15.7333 27.6369 16.44C27.1969 17.16 26.6302 17.7 25.9369 18.06C25.2435 18.42 24.5102 18.6 23.7369 18.6C22.8435 18.6 22.0502 18.4333 21.3569 18.1C20.6769 17.7667 20.1435 17.2933 19.7569 16.68C19.3702 16.08 19.1769 15.3867 19.1769 14.6ZM18.9969 9.4C18.9969 8.4 19.2035 7.54667 19.6169 6.84C20.0302 6.12 20.5835 5.56667 21.2769 5.18C21.9702 4.79333 22.7302 4.6 23.5569 4.6C24.3302 4.6 25.0035 4.79333 25.5769 5.18C26.1502 5.56667 26.5969 6.12 26.9169 6.84C27.2502 7.54667 27.4169 8.4 27.4169 9.4C27.4169 10.3867 27.2502 11.24 26.9169 11.96C26.5969 12.68 26.1502 13.2333 25.5769 13.62C25.0035 14.0067 24.3302 14.2 23.5569 14.2C22.7302 14.2 21.9702 14.0067 21.2769 13.62C20.5835 13.2333 20.0302 12.68 19.6169 11.96C19.2035 11.24 18.9969 10.3867 18.9969 9.4ZM20.6169 9.4C20.6169 10.1067 20.7569 10.7067 21.0369 11.2C21.3302 11.6933 21.7169 12.0667 22.1969 12.32C22.6769 12.5733 23.1969 12.7 23.7569 12.7C24.2235 12.7 24.6835 12.5733 25.1369 12.32C25.5902 12.0667 25.9635 11.6933 26.2569 11.2C26.5502 10.7067 26.6969 10.1067 26.6969 9.4C26.6969 8.86667 26.6102 8.4 26.4369 8C26.2635 7.58667 26.0302 7.24 25.7369 6.96C25.4569 6.68 25.1435 6.46667 24.7969 6.32C24.4502 6.17333 24.1035 6.1 23.7569 6.1C23.1969 6.1 22.6769 6.22667 22.1969 6.48C21.7169 6.73333 21.3302 7.10667 21.0369 7.6C20.7569 8.09333 20.6169 8.69333 20.6169 9.4ZM34.7631 14.2C33.9098 14.2 33.1498 14 32.4831 13.6C31.8298 13.1867 31.3165 12.62 30.9431 11.9C30.5831 11.18 30.4031 10.3467 30.4031 9.4C30.4031 8.44 30.5898 7.6 30.9631 6.88C31.3498 6.16 31.8831 5.6 32.5631 5.2C33.2565 4.8 34.0565 4.6 34.9631 4.6C35.8698 4.6 36.6431 4.79333 37.2831 5.18C37.9365 5.55333 38.4365 6.09333 38.7831 6.8C39.1298 7.50667 39.3031 8.34667 39.3031 9.32C39.3031 9.41333 39.2965 9.51333 39.2831 9.62C39.2831 9.71333 39.2831 9.77333 39.2831 9.8H31.4231V8.44H38.0231L37.3831 9.36C37.4231 9.29333 37.4631 9.19333 37.5031 9.06C37.5431 8.91333 37.5631 8.79333 37.5631 8.7C37.5631 8.15333 37.4498 7.68 37.2231 7.28C37.0098 6.88 36.7098 6.56667 36.3231 6.34C35.9365 6.11333 35.4831 6 34.9631 6C34.3498 6 33.8231 6.13333 33.3831 6.4C32.9565 6.65333 32.6231 7.02667 32.3831 7.52C32.1565 8 32.0365 8.59333 32.0231 9.3C32.0231 10.02 32.1365 10.6333 32.3631 11.14C32.5898 11.6467 32.9231 12.0333 33.3631 12.3C33.8031 12.5667 34.3365 12.7 34.9631 12.7C35.5898 12.7 36.1431 12.5667 36.6231 12.3C37.1031 12.02 37.5098 11.6 37.8431 11.04L39.1431 11.86C38.6631 12.6333 38.0565 13.22 37.3231 13.62C36.6031 14.0067 35.7498 14.2 34.7631 14.2ZM43.0961 4.8V14H41.4961V4.8H43.0961ZM45.8761 6.56C45.6628 6.4 45.4694 6.28667 45.2961 6.22C45.1228 6.14 44.9028 6.1 44.6361 6.1C44.2361 6.1 43.9228 6.2 43.6961 6.4C43.4694 6.6 43.3094 6.87333 43.2161 7.22C43.1361 7.56667 43.0961 7.96 43.0961 8.4H42.3761C42.3761 7.66667 42.5028 7.02 42.7561 6.46C43.0228 5.88667 43.3628 5.43333 43.7761 5.1C44.1894 4.76667 44.6094 4.6 45.0361 4.6C45.3694 4.6 45.6761 4.64667 45.9561 4.74C46.2494 4.82 46.5161 4.98667 46.7561 5.24L45.8761 6.56Z" fill="white"/>
</svg>
