<svg width="74" height="24" viewBox="0 0 74 24" fill="none" xmlns="http://www.w3.org/2000/svg">
<path d="M0 20.4H20V0.4H0V20.4ZM27.5961 5H29.2961V17.4H34.7961V19H27.5961V5ZM40.06 19.2C39.2067 19.2 38.4467 19 37.78 18.6C37.1267 18.1867 36.6133 17.62 36.24 16.9C35.88 16.18 35.7 15.3467 35.7 14.4C35.7 13.44 35.8867 12.6 36.26 11.88C36.6467 11.16 37.18 10.6 37.86 10.2C38.5533 9.8 39.3533 9.6 40.26 9.6C41.1667 9.6 41.94 9.79333 42.58 10.18C43.2333 10.5533 43.7333 11.0933 44.08 11.8C44.4267 12.5067 44.6 13.3467 44.6 14.32C44.6 14.4133 44.5933 14.5133 44.58 14.62C44.58 14.7133 44.58 14.7733 44.58 14.8H36.72V13.44H43.32L42.68 14.36C42.72 14.2933 42.76 14.1933 42.8 14.06C42.84 13.9133 42.86 13.7933 42.86 13.7C42.86 13.1533 42.7467 12.68 42.52 12.28C42.3067 11.88 42.0067 11.5667 41.62 11.34C41.2333 11.1133 40.78 11 40.26 11C39.6467 11 39.12 11.1333 38.68 11.4C38.2533 11.6533 37.92 12.0267 37.68 12.52C37.4533 13 37.3333 13.5933 37.32 14.3C37.32 15.02 37.4333 15.6333 37.66 16.14C37.8867 16.6467 38.22 17.0333 38.66 17.3C39.1 17.5667 39.6333 17.7 40.26 17.7C40.8867 17.7 41.44 17.5667 41.92 17.3C42.4 17.02 42.8067 16.6 43.14 16.04L44.44 16.86C43.96 17.6333 43.3533 18.22 42.62 18.62C41.9 19.0067 41.0467 19.2 40.06 19.2ZM46.173 19.6H47.793C47.793 20.04 47.913 20.4467 48.153 20.82C48.393 21.2067 48.733 21.5133 49.173 21.74C49.613 21.98 50.133 22.1 50.733 22.1C51.1996 22.1 51.6596 21.9867 52.113 21.76C52.5663 21.5333 52.9396 21.1733 53.233 20.68C53.5396 20.2 53.693 19.5733 53.693 18.8V9.8H55.293V18.8C55.293 19.8533 55.073 20.7333 54.633 21.44C54.193 22.16 53.6263 22.7 52.933 23.06C52.2396 23.42 51.5063 23.6 50.733 23.6C49.8396 23.6 49.0463 23.4333 48.353 23.1C47.673 22.7667 47.1396 22.2933 46.753 21.68C46.3663 21.08 46.173 20.3867 46.173 19.6ZM45.993 14.4C45.993 13.4 46.1996 12.5467 46.613 11.84C47.0263 11.12 47.5796 10.5667 48.273 10.18C48.9663 9.79333 49.7263 9.6 50.553 9.6C51.3263 9.6 51.9996 9.79333 52.573 10.18C53.1463 10.5667 53.593 11.12 53.913 11.84C54.2463 12.5467 54.413 13.4 54.413 14.4C54.413 15.3867 54.2463 16.24 53.913 16.96C53.593 17.68 53.1463 18.2333 52.573 18.62C51.9996 19.0067 51.3263 19.2 50.553 19.2C49.7263 19.2 48.9663 19.0067 48.273 18.62C47.5796 18.2333 47.0263 17.68 46.613 16.96C46.1996 16.24 45.993 15.3867 45.993 14.4ZM47.613 14.4C47.613 15.1067 47.753 15.7067 48.033 16.2C48.3263 16.6933 48.713 17.0667 49.193 17.32C49.673 17.5733 50.193 17.7 50.753 17.7C51.2196 17.7 51.6796 17.5733 52.133 17.32C52.5863 17.0667 52.9596 16.6933 53.253 16.2C53.5463 15.7067 53.693 15.1067 53.693 14.4C53.693 13.8667 53.6063 13.4 53.433 13C53.2596 12.5867 53.0263 12.24 52.733 11.96C52.453 11.68 52.1396 11.4667 51.793 11.32C51.4463 11.1733 51.0996 11.1 50.753 11.1C50.193 11.1 49.673 11.2267 49.193 11.48C48.713 11.7333 48.3263 12.1067 48.033 12.6C47.753 13.0933 47.613 13.6933 47.613 14.4ZM61.7592 19.2C60.9059 19.2 60.1459 19 59.4792 18.6C58.8259 18.1867 58.3126 17.62 57.9392 16.9C57.5792 16.18 57.3992 15.3467 57.3992 14.4C57.3992 13.44 57.5859 12.6 57.9592 11.88C58.3459 11.16 58.8792 10.6 59.5592 10.2C60.2526 9.8 61.0526 9.6 61.9592 9.6C62.8659 9.6 63.6392 9.79333 64.2792 10.18C64.9326 10.5533 65.4326 11.0933 65.7792 11.8C66.1259 12.5067 66.2992 13.3467 66.2992 14.32C66.2992 14.4133 66.2926 14.5133 66.2792 14.62C66.2792 14.7133 66.2792 14.7733 66.2792 14.8H58.4192V13.44H65.0192L64.3792 14.36C64.4192 14.2933 64.4592 14.1933 64.4992 14.06C64.5392 13.9133 64.5592 13.7933 64.5592 13.7C64.5592 13.1533 64.4459 12.68 64.2192 12.28C64.0059 11.88 63.7059 11.5667 63.3192 11.34C62.9326 11.1133 62.4792 11 61.9592 11C61.3459 11 60.8192 11.1333 60.3792 11.4C59.9526 11.6533 59.6192 12.0267 59.3792 12.52C59.1526 13 59.0326 13.5933 59.0192 14.3C59.0192 15.02 59.1326 15.6333 59.3592 16.14C59.5859 16.6467 59.9192 17.0333 60.3592 17.3C60.7992 17.5667 61.3326 17.7 61.9592 17.7C62.5859 17.7 63.1392 17.5667 63.6192 17.3C64.0992 17.02 64.5059 16.6 64.8392 16.04L66.1392 16.86C65.6592 17.6333 65.0526 18.22 64.3192 18.62C63.5992 19.0067 62.7459 19.2 61.7592 19.2ZM70.0922 9.8V19H68.4922V9.8H70.0922ZM72.8722 11.56C72.6589 11.4 72.4655 11.2867 72.2922 11.22C72.1189 11.14 71.8989 11.1 71.6322 11.1C71.2322 11.1 70.9189 11.2 70.6922 11.4C70.4655 11.6 70.3055 11.8733 70.2122 12.22C70.1322 12.5667 70.0922 12.96 70.0922 13.4H69.3722C69.3722 12.6667 69.4989 12.02 69.7522 11.46C70.0189 10.8867 70.3589 10.4333 70.7722 10.1C71.1855 9.76667 71.6055 9.6 72.0322 9.6C72.3655 9.6 72.6722 9.64667 72.9522 9.74C73.2455 9.82 73.5122 9.98667 73.7522 10.24L72.8722 11.56Z" fill="white"/>
</svg>
